<?xml version="1.0" encoding="UTF-8" standalone="no"?>
<!-- Created with Inkscape (http://www.inkscape.org/) -->

<svg
   width="400mm"
   height="100mm"
   viewBox="0 0 400 100"
   version="1.1"
   id="svg245"
   inkscape:version="1.2.2 (b0a8486541, 2022-12-01)"
   sodipodi:docname="cloi-v4.svg"
   xmlns:inkscape="http://www.inkscape.org/namespaces/inkscape"
   xmlns:sodipodi="http://sodipodi.sourceforge.net/DTD/sodipodi-0.dtd"
   xmlns="http://www.w3.org/2000/svg"
   xmlns:svg="http://www.w3.org/2000/svg">
  <sodipodi:namedview
     id="namedview247"
     pagecolor="#ffffff"
     bordercolor="#000000"
     borderopacity="0.25"
     inkscape:showpageshadow="2"
     inkscape:pageopacity="0.0"
     inkscape:pagecheckerboard="0"
     inkscape:deskcolor="#d1d1d1"
     inkscape:document-units="mm"
     showgrid="false"
     inkscape:zoom="0.35355339"
     inkscape:cx="724.07735"
     inkscape:cy="219.2031"
     inkscape:window-width="1920"
     inkscape:window-height="1012"
     inkscape:window-x="1080"
     inkscape:window-y="1080"
     inkscape:window-maximized="1"
     inkscape:current-layer="layer1" />
  <defs
     id="defs242" />
  <g
     inkscape:label="Layer 1"
     inkscape:groupmode="layer"
     id="layer1">
    <path
       id="rect470"
       style="fill:#a78bfa;stroke-width:2.64583;stroke-linejoin:round"
       d="m 24.877041,4.7702515 c -7.106512,0.069061 -13.281365,7.6986455 -13.281365,15.2295615 0,0 -0.662463,20.445169 -0.661459,30.667895 9.61e-4,9.777453 0.661459,29.33206 0.661459,29.33206 0.03748,8.309891 7.83723,18.144622 15.529289,15.000118 l 38.833289,-15.875 c 4.060336,-1.65986 9.793997,-5.01888 12.538929,-7.872677 0,0 -9.555205,-2.536429 -12.368377,-4.506225 -2.904998,-2.034094 -6.28284,-4.792659 -6.28284,-4.792659 -1.75129,1.004522 -3.975467,3.794153 -5.887496,4.817276 l -14.83372,7.9375 c -5.861565,3.136514 -13.058119,-0.06014 -13.058119,-6.708117 0,0 -1.058333,-11.55485 -1.058333,-17.332276 0,-6.222531 1.058333,-18.667594 1.058333,-18.667594 0,-6.647979 6.920912,-14.555756 13.058119,-12.000301 l 13.532587,7.713761 c 0,0 2.639727,-3.400794 5.391687,-5.356979 3.119639,-2.217545 11.451132,-7.147704 11.451132,-7.147704 L 27.124965,5.0002116 C 26.36318,4.8370635 25.612196,4.7631072 24.877041,4.7702515 Z"
       sodipodi:nodetypes="sssssscscsssssccsccs" />
    <rect
       style="fill:#a78bfa;stroke-width:2.64584;stroke-linejoin:round"
       id="rect1200"
       width="136.78958"
       height="0.5"
       x="46.037498"
       y="-29.104166" />
    <path
       id="rect1334"
       style="fill:#a78bfa;stroke-width:2.64583;stroke-linejoin:round"
       d="m 82.302473,7.1618367 c -1.38338,2.272481 -2.17971,4.9450653 -2.17971,7.8108933 v 59.999955 c 0,8.309976 6.791673,16.295117 15.00012,15.000118 l 33.541677,-5.291667 c 4.41866,-0.697107 8.45905,-2.303477 11.20759,-5.27823 0,0 -2.6684,-3.726733 -5.06094,-6.119266 -2.4368,-2.436802 -9.42707,-8.368739 -9.42707,-8.368739 -2.39159,2.521332 -5.01047,5.535069 -8.66097,6.882784 l -8.6,3.175 C 101.36689,77.466998 93.825619,67.05431 94.06455,59.856295 L 95.122883,27.97297 c 0.04366,-1.315385 -2.808221,-7.281853 -4.175973,-8.991699 z"
       sodipodi:nodetypes="csssscscsssscc" />
    <path
       id="rect1399"
       style="fill:#a78bfa;stroke-width:2.64583;stroke-linejoin:round"
       d="m 141.50735,10.812091 c -6.86868,-0.597989 -13.17892,5.518101 -12.44657,12.286086 l 4.39084,40.577906 c 0.73235,6.767985 5.6068,11.420679 12.44656,12.286509 l 41.00415,5.190627 c 6.83977,0.865831 11.72914,-5.516485 12.44657,-12.286509 l 4.39084,-41.43416 c 0.71743,-6.770024 -5.57789,-11.688096 -12.44657,-12.286086 z m 10.78713,12.286086 28.21198,4.334373 c 5.90487,0.9072 12.04472,4.878794 10.78671,10.648421 l -4.39084,20.137742 c -1.25801,5.769626 -5.01679,12.189377 -10.78671,10.647997 l -19.4303,-5.190627 c -5.76992,-1.54138 -9.47675,-4.893663 -10.78714,-10.647997 l -4.39083,-19.281489 c -1.31039,-5.754336 4.88226,-11.555619 10.78713,-10.64842 z"
       sodipodi:nodetypes="ssssssssssssssssss" />
    <path
       id="rect1404"
       style="fill:#a78bfa;stroke-width:2.64583;stroke-linejoin:round"
       d="m 215.32078,40.981486 c 0.0816,0.591056 0.12712,1.193957 0.12712,1.808158 0,0 1.07785,13.188876 1.05834,18.85828 -0.0195,5.669404 -1.05834,15.141712 -1.05834,15.141712 -0.1641,4.695805 -1.64009,9.658489 -5.15989,12.110372 h 19.42104 c 0.12842,-0.772367 0.20113,-1.537716 0.20981,-2.285649 l 0.52916,-45.632873 c 0,0 -5.94132,1.058333 -8.46253,1.058333 -2.52121,0 -6.66471,-1.058333 -6.66471,-1.058333 z"
       sodipodi:nodetypes="ccscccccsc" />
    <circle
       style="fill:#a78bfa;stroke-width:2.64582;stroke-linejoin:round"
       id="path1415"
       cx="222.51445"
       cy="19.182289"
       r="12.115951" />
    <path
       id="rect1443"
       style="fill:#a78bfa;stroke-width:2.64583;stroke-linejoin:round"
       d="m 257.37867,11.548649 c -3.49901,1.289371 -6.94878,3.389388 -9.20369,6.359389 -1.65916,2.185328 -2.24709,5.072096 -2.68758,7.780316 -0.39795,2.446673 -0.38079,4.999589 0.0753,7.436095 0.49364,2.637088 1.37265,5.283572 2.83511,7.532818 5.18273,7.970948 9.71124,5.719548 20.32296,20.013677 10.61172,14.294129 -28.68015,11.977269 -28.87076,9.987276 -0.19061,-1.989993 -5.74538,11.244792 -5.74538,11.244792 0,0 10.37304,2.943161 15.70964,3.478341 4.7047,0.471809 9.48502,0.282832 14.18259,-0.255285 3.04577,-0.3489 6.27957,-0.494863 8.9948,-1.918228 4.15598,-2.178626 7.91638,-5.579722 10.2467,-9.652579 2.30013,-4.020089 3.44543,-11.79222 3.08848,-13.547205 -0.69879,-3.435685 -5.36622,-10.833161 -9.62868,-14.232064 -4.26246,-3.398903 -14.09398,-11.453021 -14.09398,-11.453021 -5.63092,-4.490126 1.64179,-12.991256 8.76691,-11.941908 l 17.96531,2.645833 c 0,0 -0.18497,-3.543888 -0.20702,-5.580801 -0.022,-2.036912 1.79452,-6.376092 1.79452,-6.376092 0,0 -10.62983,-1.18293 -14.69444,-1.545088 -4.06461,-0.362159 -7.40437,-0.824732 -11.1189,-0.763601 -2.59027,0.04263 -5.30105,-0.108419 -7.73188,0.787335 z"
       sodipodi:nodetypes="aaaaazzcaaaaszssczczaaa" />
    <path
       id="path1454"
       style="fill:#a78bfa;stroke-width:2.64583;stroke-linejoin:round"
       d="m 305.89271,8.6049226 0.17725,20.2819664 -16.21193,-2.081011 -0.047,9.429915 16.36334,2.196766 0.24753,29.210103 c 0.089,9.928699 6.76638,22.173275 14.18518,23.359815 l 6.66213,-19.48925 c -4.40202,-2.688489 -6.19447,-9.847795 -6.37636,-16.581417 0,0 -0.59322,-8.059971 -0.89141,-14.646651 l 19.03553,2.351277 1.10536,-9.430431 -10.52484,-1.536458 -9.66928,-1.454574 c 0.2726,-8.090693 0.94464,-19.270658 0.94464,-19.270658 0,-0.794627 0.0455,-1.57471 0.12713,-2.3393924 0,0 -4.1435,1.3694254 -6.66471,1.3694254 -2.52121,0 -8.46253,-1.3694254 -8.46253,-1.3694254 z"
       sodipodi:nodetypes="ccccccccccccccccsc" />
    <path
       id="path1461"
       style="fill:#a78bfa;stroke-width:2.64582;stroke-linejoin:round"
       d="m 358.06347,82.770652 c -0.0816,-0.714151 -0.12713,-1.442606 -0.12713,-2.184715 0,0 -1.07784,-15.935497 -1.05833,-22.78558 0.0195,-6.850084 -0.35273,-12.211593 0,-18.295023 0.2102,-3.625272 0.0343,-7.476231 1.25813,-10.795977 0.96822,-2.626475 2.47268,-5.29287 4.58906,-6.607426 1.53875,-0.955769 3.46853,-0.82694 5.1751,-0.48284 1.91796,0.386723 3.71291,1.537091 5.35513,2.795136 3.44711,2.640706 9.18665,9.781514 9.18665,9.781514 l 5.59825,-18.999497 c 0,0 -10.79792,-8.1639797 -16.86967,-10.0549047 -2.30532,-0.7179452 -4.75623,-0.5317172 -7.13436,-0.3989434 -2.1469,0.1198708 -4.3865,0.1232829 -6.38573,1.0762673 -2.83409,1.3509422 -5.46641,3.5863852 -7.47614,6.3530388 -3.17723,4.373874 -5.29691,9.898998 -6.70904,15.462882 -1.01816,4.01162 -0.97803,8.319001 -1.16709,12.508785 -0.23288,5.160907 -0.0212,10.337632 0.0427,15.505627 0.11166,9.042724 0.59526,27.121656 0.59526,27.121656 0,0 5.94133,-1.278731 8.46254,-1.278731 2.52121,0 6.66471,1.278731 6.66471,1.278731 z"
       sodipodi:nodetypes="cszaaaaaccaaaaaaaczc" />
  </g>
</svg>
