<?xml version="1.0" encoding="UTF-8"?>
<svg xmlns="http://www.w3.org/2000/svg" viewBox="0 0 256 256" width="256" height="256">
  <path d="M58,6 C25,8 4,35 4,68 L4,188 C4,224 28,252 65,250 L188,238 C197,237 205,235 213,231 C205,222 195,212 188,206 C182,209 176,212 168,213 L72,226 C45,229 28,205 28,178 L28,78 C28,51 47,29 74,32 L172,41 C179,42 185,44 191,46 C198,38 208,28 218,22 C206,18 195,15 183,14 L62,6 C61,6 59,6 58,6 Z" fill="#581C87"/>
  <path d="M49,34 C34,46 28,63 28,82 L28,178 C28,207 47,231 76,228 L174,218 C180,217 186,216 191,214 C183,204 173,192 168,186 C163,188 157,190 150,191 L82,202 C60,205 52,183 52,164 L52,92 C52,78 59,66 71,58 C64,50 54,40 49,34 Z" fill="#7C3AED"/>
  <path d="M86,56 C64,53 52,72 52,94 L52,174 C52,196 70,217 92,214 L172,204 C194,201 208,182 208,160 L208,100 C208,78 192,61 170,58 Z M98,80 L154,90 C168,93 180,102 180,118 L180,152 C180,168 168,178 154,180 L98,170 C84,167 76,154 76,138 L76,102 C76,86 88,77 98,80 Z" fill="#8B5CF6"/>
  <path d="M178,98 C170,103 156,109 140,116 C148,120 156,125 156,134 L156,144 C156,152 149,158 138,162 C150,174 161,183 170,188 C180,182 188,171 188,156 L188,116 C188,108 184,102 178,98 Z" fill="#A78BFA"/>
  <circle cx="160" cy="66" r="28" fill="#A78BFA"/>
</svg>
